<?xml version="1.0" encoding="utf-8"?>
<!-- Generator: Adobe Illustrator 25.0.1, SVG Export Plug-In . SVG Version: 6.00 Build 0)  -->
<svg version="1.1" id="Layer_1" xmlns="http://www.w3.org/2000/svg" xmlns:xlink="http://www.w3.org/1999/xlink" x="0px" y="0px"
	 width="142px" height="40px" viewBox="0 0 142 40" enable-background="new 0 0 142 40" xml:space="preserve">
<path fill="#FFFFFF" d="M126.763,34.981c-2.801,0-6.723-0.847-9.363-1.743l3.526-5.921c2.43,0.898,4.163,2.168,6.909,2.168
	c3.489,0,3.824-1.004,3.956-1.743l0.028-0.16c0.465-2.642-12.648-0.792-10.849-10.99c1.089-6.183,6.843-7.346,12.076-7.346
	c2.112,0,5.251,0.477,8.402,1.479l-3.466,5.866c-2.234-1.11-3.636-1.85-5.856-1.85c-2.534,0-3.524,0.528-3.731,1.69
	c-0.616,3.489,12.497,1.639,10.83,11.097C138.163,33.552,132.153,34.981,126.763,34.981 M108.134,34.188l-0.535-2.959
	c-1.234,1.002-3.568,3.751-6.738,3.751c-6.976,0-7.982-4.175-7.004-9.722l2.683-15.22h7.239l-2.768,15.696
	c-0.287,1.638-0.555,3.751,2.139,3.751c2.168,0,3.822-2.482,5.446-4.808l2.581-14.639h7.238l-3.354,19.025
	c-0.353,2.008-0.2,3.539-0.216,5.125H108.134z M81.17,34.188l2.703-15.325c0.633-3.591-0.33-4.119-1.758-4.119
	c-2.746,0-4.903,2.641-6.231,5.071l-2.536,14.374H66.11l2.703-15.325c0.67-3.802-0.068-4.119-2.181-4.119
	c-2.271,0-4.648,3.592-5.487,4.755l-2.591,14.69h-7.239l3.279-18.599c0.354-2.009,0.131-3.752,0.29-5.551h6.713l0.471,3.014
	c0.927-1.056,4.211-3.805,6.96-3.805c4.121,0,5.241,0.528,7.215,3.435c1.764-2.219,4.515-3.435,8.003-3.435
	c5.815,0,8.018,3.066,6.883,9.512l-2.721,15.429H81.17z M44.588,40c-4.683-1.901-8.644-4.914-7.415-11.888l2.21-12.523h-3.646
	l0.986-5.601h3.646l1.166-6.607h7.184l-1.163,6.607h3.907l-0.987,5.601h-3.907L44.232,28.85c-0.552,3.119,0.625,4.228,4.085,5.284
	L44.588,40z M22.065,34.188L22.065,34.188l4.259-24.15h7.185l-4.258,24.15H22.065z M26.929,5.706L27.937,0h7.505l-1.008,5.706
	H26.929z M0,34.188L6.03,0h8.034L9.152,27.847h11.054l-1.12,6.341H0z"/>
</svg>
