<?xml version="1.0" encoding="utf-8"?>
<!-- Generator: Adobe Illustrator 25.0.1, SVG Export Plug-In . SVG Version: 6.00 Build 0)  -->
<svg version="1.1" id="Layer_1" xmlns="http://www.w3.org/2000/svg" xmlns:xlink="http://www.w3.org/1999/xlink" x="0px" y="0px"
	 viewBox="0 0 41 32" style="enable-background:new 0 0 41 32;" xml:space="preserve" width="41px" height="32px">
<style type="text/css">
	.st0{fill-rule:evenodd;clip-rule:evenodd;fill:#E5302E;}
	.st1{fill-rule:evenodd;clip-rule:evenodd;fill:#00AFEA;}
	.st2{fill:#231A1C;}
</style>
<g>
	<path class="st0" d="M39.4,14.5L28,3.2c-0.8-0.8-2.1-0.8-2.9,0l-4.6,4.6l8.2,8.2l-8.2,8.2l4.6,4.6c0.8,0.8,2.1,0.8,2.9,0l11.4-11.4
		C40.2,16.7,40.2,15.3,39.4,14.5z"/>
	<path class="st1" d="M12.3,16l8.2-8.2l-4.6-4.6c-0.8-0.8-2.1-0.8-2.9,0L1.6,14.5c-0.8,0.8-0.8,2.1,0,2.9L13,28.8
		c0.8,0.8,2.1,0.8,2.9,0l4.6-4.6L12.3,16z"/>
</g>
<path class="st2" d="M40.1,13.8L28.7,2.5c-0.6-0.6-1.3-0.9-2.2-0.9c-0.8,0-1.6,0.3-2.2,0.9l-3.9,3.9l-3.9-3.9
	c-0.6-0.6-1.3-0.9-2.2-0.9c-0.8,0-1.6,0.3-2.2,0.9L0.9,13.8c-1.2,1.2-1.2,3.1,0,4.3l11.4,11.4c0.6,0.6,1.3,0.9,2.2,0.9
	c0.8,0,1.6-0.3,2.2-0.9l3.9-3.9l3.9,3.9c0.6,0.6,1.3,0.9,2.2,0.9s1.6-0.3,2.2-0.9l11.4-11.4C41.3,17,41.3,15,40.1,13.8z M13.7,16
	l6.8-6.8l6.8,6.8l-6.8,6.8L13.7,16z M15.2,28.2c-0.4,0.4-1.1,0.4-1.5,0L2.3,16.8c-0.4-0.4-0.4-1.1,0-1.5L13.7,3.8
	c0.2-0.2,0.5-0.3,0.8-0.3s0.6,0.1,0.8,0.3l3.9,3.9L10.9,16l8.2,8.2L15.2,28.2z M38.7,16.8L27.4,28.2c-0.4,0.4-1.1,0.4-1.5,0L22,24.3
	l8.2-8.2L22,7.9L25.9,4c0.4-0.4,1.1-0.4,1.5,0l11.4,11.4C39.2,15.7,39.2,16.3,38.7,16.8z"/>
</svg>
