<?xml version="1.0" encoding="utf-8"?>
<!-- Generator: Adobe Illustrator 25.0.1, SVG Export Plug-In . SVG Version: 6.00 Build 0)  -->
<svg version="1.1" id="Layer_1" xmlns="http://www.w3.org/2000/svg" xmlns:xlink="http://www.w3.org/1999/xlink" x="0px" y="0px"
	 width="10.1px" height="18px" viewBox="0 0 10.1 18" style="enable-background:new 0 0 10.1 18;" xml:space="preserve">
<style type="text/css">
	.st0{fill:#999999;}
</style>
<path class="st0" d="M4.8,18C2.1,17.9,0,15.6,0,13l0.1-9.5c0-2,1.7-3.6,3.8-3.5c2,0.1,3.7,1.7,3.6,3.7L7.4,12c0,1.3-1.2,2.4-2.6,2.3
	c-1.3-0.1-2.4-1.2-2.4-2.5l0.1-6.5c0-0.3,0.2-0.5,0.5-0.5l1,0c0.3,0,0.5,0.2,0.5,0.5l-0.1,6.5c0,0.2,0.2,0.4,0.4,0.4
	c0.2,0,0.4-0.1,0.4-0.3l0.1-8.3c0-0.9-0.7-1.6-1.6-1.7C2.9,2,2.2,2.7,2.2,3.5L2.1,13c0,1.6,1.3,2.9,2.8,3c1.6,0.1,2.9-1.1,2.9-2.7
	l0.1-7.8C7.9,5.2,8.2,5,8.4,5l1,0C9.8,5,10,5.3,10,5.5l-0.1,7.8C9.9,16,7.6,18.1,4.8,18L4.8,18z"/>
</svg>
