<?xml version="1.0" encoding="UTF-8"?>
<!DOCTYPE svg PUBLIC "-//W3C//DTD SVG 1.1//EN" "http://www.w3.org/Graphics/SVG/1.1/DTD/svg11.dtd">
<svg xmlns="http://www.w3.org/2000/svg" version="1.1" width="312px" height="57px" style="shape-rendering:geometricPrecision; text-rendering:geometricPrecision; image-rendering:optimizeQuality; fill-rule:evenodd; clip-rule:evenodd" xmlns:xlink="http://www.w3.org/1999/xlink">
<g><path style="opacity:1" fill="#020202" d="M -0.5,-0.5 C 103.5,-0.5 207.5,-0.5 311.5,-0.5C 311.5,18.5 311.5,37.5 311.5,56.5C 207.5,56.5 103.5,56.5 -0.5,56.5C -0.5,37.5 -0.5,18.5 -0.5,-0.5 Z"/></g>
<g><path style="opacity:1" fill="#ebebeb" d="M 253.5,3.5 C 258.575,3.18034 260.408,5.51367 259,10.5C 255.109,13.652 252.276,12.9853 250.5,8.5C 250.757,6.30755 251.757,4.64089 253.5,3.5 Z"/></g>
<g><path style="opacity:1" fill="#f5f5f5" d="M 188.5,6.5 C 209.88,4.61575 216.713,13.6157 209,33.5C 206.736,36.4335 203.902,38.6001 200.5,40C 194.258,41.3696 187.925,41.8696 181.5,41.5C 183.929,29.8212 186.262,18.1545 188.5,6.5 Z"/></g>
<g><path style="opacity:1" fill="#f5f5f5" d="M 15.5,6.5 C 21.2233,5.4501 25.8899,7.11677 29.5,11.5C 28.1851,13.3159 26.6851,14.9825 25,16.5C 21.6579,12.6798 18.4912,12.6798 15.5,16.5C 18.5495,19.7108 22.0495,22.3775 26,24.5C 29.1708,35.146 25.1708,40.8127 14,41.5C 8.91583,41.3908 5.0825,39.2241 2.5,35C 3.97823,33.5218 5.47823,32.0218 7,30.5C 10.3273,33.1539 14.1606,34.1539 18.5,33.5C 18.6567,32.1266 18.49,30.7932 18,29.5C 14.0401,27.5322 10.7068,24.8655 8,21.5C 7.33333,18.5 7.33333,15.5 8,12.5C 10.1141,9.87922 12.6141,7.87922 15.5,6.5 Z"/></g>
<g><path style="opacity:1" fill="#f1f1f1" d="M 39.5,7.5 C 41.8333,7.5 44.1667,7.5 46.5,7.5C 46.5,10.1667 46.5,12.8333 46.5,15.5C 48.1992,15.3398 49.8659,15.5065 51.5,16C 50.5769,18.0408 50.2436,20.2075 50.5,22.5C 48.1667,22.5 45.8333,22.5 43.5,22.5C 43.1667,26.5 42.8333,30.5 42.5,34.5C 47.2411,34.1614 48.5744,36.1614 46.5,40.5C 42.4811,42.0177 38.6478,41.6843 35,39.5C 33.1639,34.1536 33.3306,28.8203 35.5,23.5C 34.675,22.6143 33.675,22.281 32.5,22.5C 32.6741,20.139 33.0074,17.8056 33.5,15.5C 34.9778,15.762 36.3112,15.4287 37.5,14.5C 38.5771,12.2706 39.2437,9.93724 39.5,7.5 Z"/></g>
<g><path style="opacity:1" fill="#f2f2f2" d="M 110.5,7.5 C 112.833,7.5 115.167,7.5 117.5,7.5C 117.167,10.1667 116.833,12.8333 116.5,15.5C 118.167,15.5 119.833,15.5 121.5,15.5C 122.833,21.5 120.5,23.8333 114.5,22.5C 113.979,26.4809 113.646,30.4809 113.5,34.5C 117.844,34.5258 119.178,36.5258 117.5,40.5C 113.481,42.0177 109.648,41.6843 106,39.5C 104.211,33.9649 104.377,28.4649 106.5,23C 105.552,22.5172 104.552,22.3505 103.5,22.5C 102.53,18.0685 104.197,15.7352 108.5,15.5C 108.963,12.779 109.629,10.1123 110.5,7.5 Z"/></g>
<g><path style="opacity:1" fill="#090909" d="M 195.5,13.5 C 201.158,13.1578 203.824,15.8244 203.5,21.5C 203.713,28.4387 200.546,32.7721 194,34.5C 193.167,34.1667 192.333,33.8333 191.5,33.5C 192.705,26.8091 194.038,20.1424 195.5,13.5 Z"/></g>
<g><path style="opacity:1" fill="#f4f4f4" d="M 62.5,15.5 C 65.4822,15.1044 68.1489,15.7711 70.5,17.5C 72.8511,15.7711 75.5178,15.1044 78.5,15.5C 77.2962,24.1858 75.9629,32.8524 74.5,41.5C 71.8333,41.5 69.1667,41.5 66.5,41.5C 66.6495,40.448 66.4828,39.448 66,38.5C 63.3632,40.2349 60.5299,41.5682 57.5,42.5C 54.8666,41.6994 53.0333,40.0327 52,37.5C 50.4472,27.6094 53.9472,20.2761 62.5,15.5 Z"/></g>
<g><path style="opacity:1" fill="#f4f4f4" d="M 85.5,15.5 C 87.8333,15.5 90.1667,15.5 92.5,15.5C 92.3398,17.1992 92.5065,18.8659 93,20.5C 95.1201,16.8868 98.2867,15.2202 102.5,15.5C 102.414,17.677 101.747,19.677 100.5,21.5C 97.8549,22.1919 95.3549,23.1919 93,24.5C 90.6544,29.5553 89.3211,34.8887 89,40.5C 86.2809,41.4438 83.4475,41.7771 80.5,41.5C 81.6589,32.7066 83.3256,24.0399 85.5,15.5 Z"/></g>
<g><path style="opacity:1" fill="#f4f4f4" d="M 126.5,15.5 C 129.167,15.5 131.833,15.5 134.5,15.5C 133.113,21.7703 132.113,28.1036 131.5,34.5C 134.056,34.8678 136.056,34.0345 137.5,32C 138.952,26.5739 139.952,21.0739 140.5,15.5C 143.5,15.5 146.5,15.5 149.5,15.5C 148.195,23.5239 146.695,31.5239 145,39.5C 142.894,41.291 140.394,41.9577 137.5,41.5C 137.719,40.325 137.386,39.325 136.5,38.5C 126.271,44.7328 121.771,42.0661 123,30.5C 124.276,25.5092 125.443,20.5092 126.5,15.5 Z"/></g>
<g><path style="opacity:1" fill="#f5f5f5" d="M 155.5,15.5 C 158.167,15.5 160.833,15.5 163.5,15.5C 163.351,16.552 163.517,17.552 164,18.5C 169.033,14.2207 173.7,14.5541 178,19.5C 179.46,27.7882 176.96,34.6215 170.5,40C 166.78,42.0575 163.28,41.8908 160,39.5C 158.85,43.1117 158.017,46.7783 157.5,50.5C 154.833,50.5 152.167,50.5 149.5,50.5C 151.244,38.7803 153.244,27.1136 155.5,15.5 Z"/></g>
<g><path style="opacity:1" fill="#f4f4f4" d="M 226.5,15.5 C 229.482,15.1044 232.149,15.7711 234.5,17.5C 236.851,15.7711 239.518,15.1044 242.5,15.5C 241.296,24.1858 239.963,32.8524 238.5,41.5C 235.833,41.5 233.167,41.5 230.5,41.5C 230.649,40.448 230.483,39.448 230,38.5C 227.363,40.2349 224.53,41.5682 221.5,42.5C 218.867,41.6994 217.033,40.0327 216,37.5C 214.447,27.6094 217.947,20.2761 226.5,15.5 Z"/></g>
<g><path style="opacity:1" fill="#f3f3f3" d="M 249.5,15.5 C 252.167,15.5 254.833,15.5 257.5,15.5C 256.325,23.8785 254.825,32.2118 253,40.5C 250.281,41.4438 247.448,41.7771 244.5,41.5C 245.659,32.7066 247.326,24.0399 249.5,15.5 Z"/></g>
<g><path style="opacity:1" fill="#f3f3f3" d="M 263.5,15.5 C 266.167,15.5 268.833,15.5 271.5,15.5C 271.343,16.8734 271.51,18.2068 272,19.5C 274.461,16.0089 277.628,15.0089 281.5,16.5C 280.833,18.1667 280.167,19.8333 279.5,21.5C 275.238,21.8753 272.071,23.8753 270,27.5C 269.163,32.1796 268.329,36.8462 267.5,41.5C 264.833,41.5 262.167,41.5 259.5,41.5C 260.958,32.8711 262.292,24.2044 263.5,15.5 Z"/></g>
<g><path style="opacity:1" fill="#f5f5f5" d="M 292.5,24.5 C 292.336,27.1873 292.503,29.854 293,32.5C 293.717,31.9558 294.217,31.2891 294.5,30.5C 296.299,25.7754 298.299,21.1088 300.5,16.5C 303.446,15.3452 306.446,15.1786 309.5,16C 304.206,25.4201 299.04,34.9201 294,44.5C 290.147,49.7843 285.147,51.4509 279,49.5C 278.79,45.1462 280.957,42.9795 285.5,43C 286.894,42.044 287.561,40.7106 287.5,39C 285.713,31.233 284.38,23.3996 283.5,15.5C 286.5,15.5 289.5,15.5 292.5,15.5C 292.5,18.5 292.5,21.5 292.5,24.5 Z"/></g>
<g><path style="opacity:1" fill="#0f0f0f" d="M 64.5,22.5 C 67.488,22.1547 68.8213,23.488 68.5,26.5C 68.5936,30.762 66.7602,33.762 63,35.5C 61.0078,34.7708 60.1744,33.2708 60.5,31C 60.6539,27.5288 61.9872,24.6955 64.5,22.5 Z"/></g>
<g><path style="opacity:1" fill="#0f0f0f" d="M 165.5,21.5 C 168.734,21.2366 170.068,22.7366 169.5,26C 169.528,30.1267 167.694,32.96 164,34.5C 162.053,33.9561 161.22,32.6228 161.5,30.5C 161.686,26.9232 163.02,23.9232 165.5,21.5 Z"/></g>
<g><path style="opacity:1" fill="#0f0f0f" d="M 228.5,22.5 C 231.488,22.1547 232.821,23.488 232.5,26.5C 232.594,30.762 230.76,33.762 227,35.5C 225.008,34.7708 224.174,33.2708 224.5,31C 224.654,27.5288 225.987,24.6955 228.5,22.5 Z"/></g>
<g><path style="opacity:1" fill="#767676" d="M 292.5,24.5 C 293.167,26.5 293.833,28.5 294.5,30.5C 294.217,31.2891 293.717,31.9558 293,32.5C 292.503,29.854 292.336,27.1873 292.5,24.5 Z"/></g>
</svg>
